<svg id="レイヤー_1" data-name="レイヤー 1" xmlns="http://www.w3.org/2000/svg" viewBox="0 0 841.89 595.28"><defs><style>.cls-1{fill:#fffcf1;}</style></defs><path class="cls-1" d="M510.47,321.61l-14.65-29.93H485.28v29.93H470.63V246.56H500c15.28,0,24.34,10.44,24.34,23a20.21,20.21,0,0,1-13.7,19.71l16.76,32.36Zm-11.38-62H485.28v19.82h13.81c6.43,0,10.64-4.11,10.64-9.91S505.52,259.63,499.09,259.63Z"/><path class="cls-1" d="M570.13,315.5c-3.37,3.58-9,6.74-17.07,6.74s-13.6-3.16-17-6.74c-5-5.17-6.22-11.39-6.22-21.4s1.26-16.13,6.22-21.29c3.37-3.59,8.85-6.75,17-6.75s13.7,3.16,17.07,6.75c5,5.16,6.22,11.38,6.22,21.29S575.09,310.33,570.13,315.5Zm-10.64-34.68a8.67,8.67,0,0,0-6.43-2.43,8.44,8.44,0,0,0-6.33,2.43c-2.84,2.84-3.16,7.59-3.16,13.28s.32,10.54,3.16,13.39a8.43,8.43,0,0,0,6.33,2.42,8.66,8.66,0,0,0,6.43-2.42c2.84-2.85,3.16-7.7,3.16-13.39S562.33,283.66,559.49,280.82Z"/><path class="cls-1" d="M666.72,321.61l-13.49-22.87-5.8,6.53v16.34h-13.7V246.56h13.7v42.59l18.24-22.46h16.54l-19.6,22.14,21.08,32.78Z"/><path class="cls-1" d="M608.1,309.91a9.51,9.51,0,0,1-7.8-3.58c-2.11-2.64-3.06-6.43-3.06-12.23s1-9.49,3.06-12.12a9.49,9.49,0,0,1,7.8-3.59c3.57,0,6,1.27,8.83,4.31h9.31v-9.26c-4.85-5.05-10.54-7.38-18.13-7.38-11,0-24.56,5.8-24.56,28s13.59,28.14,24.56,28.14c7.59,0,13.28-2.42,18.13-7.48v-9.17H617C614.11,308.64,611.68,309.91,608.1,309.91Z"/><path class="cls-1" d="M205.33,314a29.15,29.15,0,0,1-40.58,0c-7.59-7.59-7.38-17-7.38-29.93s-.21-22.35,7.38-29.94a29.15,29.15,0,0,1,40.58,0c7.59,7.59,7.48,17,7.48,29.94S212.92,306.43,205.33,314Zm-10.86-51a12.16,12.16,0,0,0-9.38-4,12.38,12.38,0,0,0-9.48,4c-2.85,3.16-3.59,6.64-3.59,21.08s.74,17.92,3.59,21.08a12.41,12.41,0,0,0,9.48,4,12.19,12.19,0,0,0,9.38-4c2.85-3.16,3.69-6.64,3.69-21.08S197.32,266.17,194.47,263Z"/><path class="cls-1" d="M254.45,321.61v-33.2c0-7.49-4.74-10-9.06-10s-9.17,2.53-9.17,10v33.2H222.51V266.69H235.9v5.06a18.8,18.8,0,0,1,13.7-5.69c5.48,0,9.91,1.79,13,4.85,4.42,4.43,5.58,9.59,5.58,15.6v35.1Z"/><path class="cls-1" d="M318.38,259.63v62H303.72v-62H283.05V246.56h56v13.07Z"/><path class="cls-1" d="M379.71,321.61V288.09c0-7.27-4.64-9.7-9-9.7s-8.85,2.53-8.85,9.7v33.52H348.19V246.56H361.9v25.19a18.13,18.13,0,0,1,13.17-5.69c12,0,18.34,8.43,18.34,20v35.52Z"/><path class="cls-1" d="M448,292.31c0-15.08-8.64-26.25-23.93-26.25-14.23,0-23.93,10.12-23.93,28,0,22.24,12.44,28.14,25.41,28.14,9.9,0,15.27-3.05,20.86-8.63v-8.14h-8.29c-3.48,3.47-6.46,5.18-12.46,5.18-7.69,0-12-5.17-12-12.23H448ZM413.67,289a15.09,15.09,0,0,1,1.26-5.9,10.23,10.23,0,0,1,18.34,0,15.27,15.27,0,0,1,1.27,5.9Z"/></svg>