<?xml version="1.0" encoding="UTF-8"?><svg xmlns="http://www.w3.org/2000/svg" xmlns:xlink="http://www.w3.org/1999/xlink" width="960pt" zoomAndPan="magnify" viewBox="0 0 960 540.000001" height="540.000001pt" preserveAspectRatio="xMidYMid meet" version="1.2"><defs><g/></defs><g xml:id="surface1" id="surface1"><g style="fill:rgb(9.01947%,9.01947%,9.01947%);fill-opacity:1;"><g transform="translate(98.540387, 311.79753)"><path style="stroke:none;" d="M 50.390625 -90.609375 C 56.785156 -90.609375 62.710938 -89.550781 68.171875 -87.4375 C 73.628906 -85.320312 78.332031 -82.285156 82.28125 -78.328125 C 86.238281 -74.378906 89.320312 -69.535156 91.53125 -63.796875 C 93.738281 -58.054688 94.84375 -51.5625 94.84375 -44.3125 C 94.84375 -37.257812 93.691406 -30.910156 91.390625 -25.265625 C 89.085938 -19.617188 85.9375 -14.796875 81.9375 -10.796875 C 77.9375 -6.796875 73.179688 -3.738281 67.671875 -1.625 C 62.171875 0.488281 56.222656 1.546875 49.828125 1.546875 C 43.421875 1.546875 37.488281 0.515625 32.03125 -1.546875 C 26.582031 -3.617188 21.878906 -6.609375 17.921875 -10.515625 C 13.972656 -14.421875 10.890625 -19.21875 8.671875 -24.90625 C 6.460938 -30.601562 5.359375 -37.070312 5.359375 -44.3125 C 5.359375 -51.375 6.488281 -57.75 8.75 -63.4375 C 11.007812 -69.132812 14.160156 -74.003906 18.203125 -78.046875 C 22.253906 -82.097656 27.03125 -85.203125 32.53125 -87.359375 C 38.039062 -89.523438 43.992188 -90.609375 50.390625 -90.609375 Z M 27.953125 -44.3125 C 27.953125 -39.332031 28.535156 -34.957031 29.703125 -31.1875 C 30.878906 -27.425781 32.503906 -24.320312 34.578125 -21.875 C 36.648438 -19.425781 39.023438 -17.585938 41.703125 -16.359375 C 44.390625 -15.140625 47.285156 -14.53125 50.390625 -14.53125 C 53.398438 -14.53125 56.242188 -15.140625 58.921875 -16.359375 C 61.609375 -17.585938 63.9375 -19.425781 65.90625 -21.875 C 67.882812 -24.320312 69.4375 -27.425781 70.5625 -31.1875 C 71.695312 -34.957031 72.265625 -39.332031 72.265625 -44.3125 C 72.265625 -49.488281 71.675781 -53.984375 70.5 -57.796875 C 69.320312 -61.609375 67.695312 -64.738281 65.625 -67.1875 C 63.5625 -69.632812 61.1875 -71.46875 58.5 -72.6875 C 55.820312 -73.90625 52.929688 -74.515625 49.828125 -74.515625 C 46.816406 -74.515625 43.96875 -73.878906 41.28125 -72.609375 C 38.601562 -71.347656 36.273438 -69.445312 34.296875 -66.90625 C 32.316406 -64.363281 30.765625 -61.207031 29.640625 -57.4375 C 28.515625 -53.675781 27.953125 -49.300781 27.953125 -44.3125 Z M 27.953125 -44.3125 "/></g></g><g style="fill:rgb(9.01947%,9.01947%,9.01947%);fill-opacity:1;"><g transform="translate(198.739415, 311.79753)"><path style="stroke:none;" d="M 29.078125 0 L 8.1875 0 L 8.1875 -67.75 L 24.421875 -67.75 L 26.8125 -59.28125 C 29.820312 -62.382812 33.207031 -64.828125 36.96875 -66.609375 C 40.738281 -68.398438 44.835938 -69.296875 49.265625 -69.296875 C 56.878906 -69.296875 62.707031 -67.222656 66.75 -63.078125 C 70.800781 -58.941406 72.828125 -52.875 72.828125 -44.875 L 72.828125 0 L 51.9375 0 L 51.9375 -42.765625 C 51.9375 -46.054688 51.160156 -48.664062 49.609375 -50.59375 C 48.054688 -52.53125 45.773438 -53.5 42.765625 -53.5 C 40.503906 -53.5 38.125 -52.835938 35.625 -51.515625 C 33.132812 -50.203125 30.953125 -48.460938 29.078125 -46.296875 Z M 29.078125 0 "/></g></g><g style="fill:rgb(9.01947%,9.01947%,9.01947%);fill-opacity:1;"><g transform="translate(279.745396, 311.79753)"><path style="stroke:none;" d=""/></g></g><g style="fill:rgb(9.01947%,9.01947%,9.01947%);fill-opacity:1;"><g transform="translate(312.486482, 311.79753)"><path style="stroke:none;" d="M 50.109375 -52.78125 L 32.75 -52.78125 L 32.75 -24.140625 C 32.75 -21.035156 33.429688 -18.867188 34.796875 -17.640625 C 36.160156 -16.421875 38.0625 -15.8125 40.5 -15.8125 C 42.382812 -15.8125 44.265625 -16 46.140625 -16.375 C 48.023438 -16.75 49.488281 -17.265625 50.53125 -17.921875 L 53.640625 -3.671875 C 52.035156 -2.828125 49.609375 -2.003906 46.359375 -1.203125 C 43.117188 -0.398438 39.660156 0 35.984375 0 C 27.234375 0 21.046875 -1.691406 17.421875 -5.078125 C 13.804688 -8.460938 12 -13.59375 12 -20.46875 L 12 -52.78125 L 1.40625 -52.78125 L 1.40625 -67.75 L 12 -67.75 L 12 -88.359375 L 32.75 -88.359375 L 32.75 -67.75 L 50.109375 -67.75 Z M 50.109375 -52.78125 "/></g></g><g style="fill:rgb(9.01947%,9.01947%,9.01947%);fill-opacity:1;"><g transform="translate(367.243134, 311.79753)"><path style="stroke:none;" d="M 29.359375 0 L 8.46875 0 L 8.46875 -100.921875 L 29.359375 -100.921875 L 29.359375 -62.390625 C 31.898438 -64.359375 34.910156 -66 38.390625 -67.3125 C 41.867188 -68.632812 45.585938 -69.296875 49.546875 -69.296875 C 53.679688 -69.296875 57.253906 -68.679688 60.265625 -67.453125 C 63.273438 -66.234375 65.769531 -64.519531 67.75 -62.3125 C 69.726562 -60.101562 71.207031 -57.492188 72.1875 -54.484375 C 73.175781 -51.472656 73.671875 -48.128906 73.671875 -44.453125 L 73.671875 0 L 52.78125 0 L 52.78125 -41.078125 C 52.78125 -45.585938 51.863281 -48.785156 50.03125 -50.671875 C 48.195312 -52.554688 45.632812 -53.5 42.34375 -53.5 C 40.082031 -53.5 37.773438 -52.976562 35.421875 -51.9375 C 33.066406 -50.90625 31.046875 -49.539062 29.359375 -47.84375 Z M 29.359375 0 "/></g></g><g style="fill:rgb(9.01947%,9.01947%,9.01947%);fill-opacity:1;"><g transform="translate(449.237004, 311.79753)"><path style="stroke:none;" d="M 69.296875 -27.8125 L 25.546875 -27.8125 L 25.546875 -27.234375 C 25.546875 -22.535156 27.378906 -19.101562 31.046875 -16.9375 C 34.722656 -14.769531 39.332031 -13.6875 44.875 -13.6875 C 48.738281 -13.6875 52.128906 -14.0625 55.046875 -14.8125 C 57.960938 -15.570312 60.410156 -16.46875 62.390625 -17.5 L 66.1875 -3.109375 C 63.65625 -1.878906 60.4375 -0.796875 56.53125 0.140625 C 52.625 1.078125 47.847656 1.546875 42.203125 1.546875 C 37.117188 1.546875 32.296875 0.863281 27.734375 -0.5 C 23.171875 -1.863281 19.171875 -3.957031 15.734375 -6.78125 C 12.296875 -9.601562 9.566406 -13.175781 7.546875 -17.5 C 5.523438 -21.832031 4.515625 -27.007812 4.515625 -33.03125 C 4.515625 -38.394531 5.335938 -43.3125 6.984375 -47.78125 C 8.628906 -52.25 10.957031 -56.082031 13.96875 -59.28125 C 16.976562 -62.476562 20.578125 -64.945312 24.765625 -66.6875 C 28.953125 -68.425781 33.585938 -69.296875 38.671875 -69.296875 C 47.984375 -69.296875 55.414062 -66.472656 60.96875 -60.828125 C 66.519531 -55.179688 69.296875 -47.140625 69.296875 -36.703125 Z M 47.984375 -42.0625 C 47.984375 -43.65625 47.796875 -45.203125 47.421875 -46.703125 C 47.046875 -48.210938 46.457031 -49.554688 45.65625 -50.734375 C 44.851562 -51.910156 43.816406 -52.851562 42.546875 -53.5625 C 41.285156 -54.269531 39.757812 -54.625 37.96875 -54.625 C 34.675781 -54.625 31.945312 -53.46875 29.78125 -51.15625 C 27.613281 -48.851562 26.34375 -45.726562 25.96875 -41.78125 Z M 47.984375 -42.0625 "/></g></g><g style="fill:rgb(9.01947%,9.01947%,9.01947%);fill-opacity:1;"><g transform="translate(523.186727, 311.79753)"><path style="stroke:none;" d=""/></g></g><g style="fill:rgb(9.01947%,9.01947%,9.01947%);fill-opacity:1;"><g transform="translate(555.927837, 311.79753)"><path style="stroke:none;" d="M 9.3125 -88.921875 L 44.59375 -88.921875 C 49.675781 -88.921875 54.171875 -88.191406 58.078125 -86.734375 C 61.984375 -85.273438 65.226562 -83.273438 67.8125 -80.734375 C 70.40625 -78.191406 72.359375 -75.226562 73.671875 -71.84375 C 74.992188 -68.457031 75.65625 -64.832031 75.65625 -60.96875 C 75.65625 -57.300781 75.113281 -54.078125 74.03125 -51.296875 C 72.945312 -48.523438 71.554688 -46.101562 69.859375 -44.03125 C 68.171875 -41.96875 66.335938 -40.273438 64.359375 -38.953125 C 62.378906 -37.640625 60.546875 -36.601562 58.859375 -35.84375 L 80.171875 0 L 55.46875 0 L 39.65625 -32.03125 L 30.765625 -32.03125 L 30.765625 0 L 9.3125 0 Z M 30.765625 -48.265625 L 37.265625 -48.265625 C 42.148438 -48.265625 46.097656 -49.253906 49.109375 -51.234375 C 52.128906 -53.210938 53.640625 -56.410156 53.640625 -60.828125 C 53.640625 -64.503906 52.414062 -67.421875 49.96875 -69.578125 C 47.519531 -71.742188 43.988281 -72.828125 39.375 -72.828125 L 30.765625 -72.828125 Z M 30.765625 -48.265625 "/></g></g><g style="fill:rgb(9.01947%,9.01947%,9.01947%);fill-opacity:1;"><g transform="translate(638.203922, 311.79753)"><path style="stroke:none;" d="M 75.234375 -34.296875 C 75.234375 -28.742188 74.3125 -23.753906 72.46875 -19.328125 C 70.632812 -14.910156 68.117188 -11.148438 64.921875 -8.046875 C 61.722656 -4.941406 57.957031 -2.566406 53.625 -0.921875 C 49.300781 0.722656 44.644531 1.546875 39.65625 1.546875 C 34.675781 1.546875 30.046875 0.769531 25.765625 -0.78125 C 21.484375 -2.332031 17.785156 -4.566406 14.671875 -7.484375 C 11.566406 -10.398438 9.117188 -14 7.328125 -18.28125 C 5.546875 -22.5625 4.65625 -27.429688 4.65625 -32.890625 C 4.65625 -38.628906 5.570312 -43.753906 7.40625 -48.265625 C 9.238281 -52.785156 11.753906 -56.597656 14.953125 -59.703125 C 18.160156 -62.804688 21.925781 -65.179688 26.25 -66.828125 C 30.582031 -68.472656 35.238281 -69.296875 40.21875 -69.296875 C 45.207031 -69.296875 49.84375 -68.539062 54.125 -67.03125 C 58.40625 -65.53125 62.097656 -63.296875 65.203125 -60.328125 C 68.304688 -57.367188 70.753906 -53.722656 72.546875 -49.390625 C 74.335938 -45.066406 75.234375 -40.035156 75.234375 -34.296875 Z M 53.78125 -33.59375 C 53.78125 -37.257812 53.398438 -40.382812 52.640625 -42.96875 C 51.890625 -45.5625 50.851562 -47.679688 49.53125 -49.328125 C 48.21875 -50.972656 46.710938 -52.171875 45.015625 -52.921875 C 43.328125 -53.679688 41.585938 -54.0625 39.796875 -54.0625 C 38.015625 -54.0625 36.300781 -53.726562 34.65625 -53.0625 C 33.007812 -52.40625 31.550781 -51.273438 30.28125 -49.671875 C 29.007812 -48.078125 27.992188 -45.984375 27.234375 -43.390625 C 26.484375 -40.804688 26.109375 -37.539062 26.109375 -33.59375 C 26.109375 -26.71875 27.519531 -21.679688 30.34375 -18.484375 C 33.164062 -15.285156 36.410156 -13.6875 40.078125 -13.6875 C 41.867188 -13.6875 43.585938 -14.039062 45.234375 -14.75 C 46.878906 -15.457031 48.335938 -16.585938 49.609375 -18.140625 C 50.878906 -19.691406 51.890625 -21.738281 52.640625 -24.28125 C 53.398438 -26.820312 53.78125 -29.925781 53.78125 -33.59375 Z M 53.78125 -33.59375 "/></g></g><g style="fill:rgb(9.01947%,9.01947%,9.01947%);fill-opacity:1;"><g transform="translate(718.08087, 311.79753)"><path style="stroke:none;" d="M 44.734375 -13.6875 C 47.753906 -13.6875 50.414062 -14.085938 52.71875 -14.890625 C 55.019531 -15.691406 56.785156 -16.421875 58.015625 -17.078125 L 61.8125 -2.96875 C 60.21875 -2.019531 57.535156 -1.03125 53.765625 0 C 50.003906 1.03125 45.867188 1.546875 41.359375 1.546875 C 36.085938 1.546875 31.21875 0.796875 26.75 -0.703125 C 22.28125 -2.210938 18.421875 -4.445312 15.171875 -7.40625 C 11.921875 -10.375 9.351562 -14.046875 7.46875 -18.421875 C 5.59375 -22.796875 4.65625 -27.851562 4.65625 -33.59375 C 4.65625 -38.863281 5.546875 -43.6875 7.328125 -48.0625 C 9.117188 -52.4375 11.660156 -56.195312 14.953125 -59.34375 C 18.253906 -62.5 22.160156 -64.945312 26.671875 -66.6875 C 31.191406 -68.425781 36.226562 -69.296875 41.78125 -69.296875 C 44.695312 -69.296875 47.867188 -68.96875 51.296875 -68.3125 C 54.734375 -67.65625 58.238281 -66.382812 61.8125 -64.5 L 57.4375 -50.25 C 55.5625 -51.375 53.46875 -52.3125 51.15625 -53.0625 C 48.851562 -53.820312 46.523438 -54.203125 44.171875 -54.203125 C 38.710938 -54.203125 34.289062 -52.53125 30.90625 -49.1875 C 27.519531 -45.84375 25.828125 -40.832031 25.828125 -34.15625 C 25.828125 -30.394531 26.390625 -27.21875 27.515625 -24.625 C 28.648438 -22.039062 30.109375 -19.925781 31.890625 -18.28125 C 33.679688 -16.632812 35.707031 -15.457031 37.96875 -14.75 C 40.226562 -14.039062 42.484375 -13.6875 44.734375 -13.6875 Z M 44.734375 -13.6875 "/></g></g><g style="fill:rgb(9.01947%,9.01947%,9.01947%);fill-opacity:1;"><g transform="translate(784.127565, 311.79753)"><path style="stroke:none;" d="M 29.21875 -22.015625 L 29.21875 0 L 8.46875 0 L 8.46875 -100.921875 L 29.21875 -100.921875 L 29.21875 -42.0625 L 50.390625 -67.75 L 75.65625 -67.75 L 50.109375 -39.234375 L 76.78125 0 L 52.21875 0 L 34.296875 -27.234375 Z M 29.21875 -22.015625 "/></g></g></g></svg>